<?xml version="1.0" encoding="utf-8"?>
<!-- Generator: Adobe Illustrator 27.6.1, SVG Export Plug-In . SVG Version: 6.00 Build 0)  -->
<svg version="1.1" id="Layer_1" xmlns="http://www.w3.org/2000/svg" xmlns:xlink="http://www.w3.org/1999/xlink" x="0px" y="0px"
	 viewBox="0 0 1318.9 390" style="enable-background:new 0 0 1318.9 390;" xml:space="preserve">
<style type="text/css">
	.st0{display:none;fill:#1E3B70;}
	.st1{clip-path:url(#SVGID_00000174564762560716273910000002164993816049497222_);fill:#231F20;}
	.st2{fill:#231F20;}
	.st3{clip-path:url(#SVGID_00000117653222912811861410000010755205782515590058_);fill:#231F20;}
	.st4{clip-path:url(#SVGID_00000168827698439959702740000014308929639102780288_);fill:#231F20;}
	.st5{clip-path:url(#SVGID_00000165204805988313350580000004024578648507333018_);fill:#002D72;}
	.st6{fill:#002D72;}
	.st7{clip-path:url(#SVGID_00000141435401363397528870000000826741599646478476_);fill:#002D72;}
	.st8{clip-path:url(#SVGID_00000162336867039589705870000015914889048945771924_);fill:#002D72;}
	.st9{clip-path:url(#SVGID_00000138554257681649349960000008468886803347272345_);fill:#FFFFFF;}
	.st10{clip-path:url(#SVGID_00000165206628670891751950000003101807429376451205_);fill:#FFFFFF;}
	.st11{fill:#FFFFFF;}
	.st12{clip-path:url(#SVGID_00000182516313037164922300000002641361160012369555_);fill:#FFFFFF;}
	.st13{clip-path:url(#SVGID_00000079444105150565354390000015464653612008254604_);fill:#231F20;}
	.st14{clip-path:url(#SVGID_00000010294601465694032990000013605235737162230462_);fill:#231F20;}
	.st15{clip-path:url(#SVGID_00000050647472901363691150000004355524579454487429_);fill:#231F20;}
	.st16{clip-path:url(#SVGID_00000096742516792275594870000002344658741272438175_);fill:#002D72;}
	.st17{clip-path:url(#SVGID_00000027577161430925265550000011741010597238642865_);fill:#002D72;}
	.st18{clip-path:url(#SVGID_00000047769019586399863540000004809959983412015017_);fill:#FFFFFF;}
	.st19{clip-path:url(#SVGID_00000117635416236235341190000002463704882404667818_);fill:#FFFFFF;}
</style>
<rect y="-0.5" class="st0" width="1318.9" height="390.5"/>
<g>
	<g>
		<defs>
			<polygon id="SVGID_00000147928549076668851940000006726422409878848674_" points="90.9,300.9 285.8,300.9 285.8,90.8 90.9,90.8 
				90.9,300.9 			"/>
		</defs>
		<clipPath id="SVGID_00000032628565518226902310000017413885634565433500_">
			<use xlink:href="#SVGID_00000147928549076668851940000006726422409878848674_"  style="overflow:visible;"/>
		</clipPath>
		<path style="clip-path:url(#SVGID_00000032628565518226902310000017413885634565433500_);fill:#FFFFFF;" d="M200.4,169.5h-8.7
			h-6.8h-8.7c0.5-0.9,0.7-2,1.8-2.5c0.7-0.4,2.3-0.2,2.3-0.2c0.4-4.1-0.7-4.4,3.7-4.3l0-8.2c-4.4-1.8-3.4-7.1,0.4-7.8
			c0.2-0.2,7.7-0.2,7.9,0c3.7,0.7,4.8,6,0.4,7.8l0,8.2c4.4-0.2,3.4,0.2,3.7,4.3c0,0,1.6-0.2,2.3,0.2
			C199.6,167.5,199.8,168.6,200.4,169.5 M212.9,194.4c-0.6,0.8-1.1,1.8-1.1,2.8h-7.3c0-2-1.3-3.6-3.1-4.2
			c-0.1-4.6-1.2-11.3-4.8-19.1h5.6C207.1,177.7,209.9,181.7,212.9,194.4 M214.1,209.8h-51.5v-6.9h15.6h20.2h15.7V209.8L214.1,209.8z
			 M184,174h2.4h3.5h2.5c3.9,7.7,5.1,14.6,5.2,19.5c-1.3,0.8-2.2,2.2-2.2,3.8h-14.4c0-1.6-0.9-3-2.2-3.8
			C178.9,188.6,180.1,181.7,184,174 M174.4,174h5.5c-3.7,7.8-4.7,14.5-4.8,19.1c-1.8,0.6-3.1,2.3-3.1,4.2h-7.2
			c0-1.1-0.5-2.1-1.1-2.9C166.7,181.7,169.5,177.7,174.4,174 M186.6,137.7c0.5-2.8,0.3-5.5,0.7-7.8c0.1-1.1,0.5-2.1,1-2.1
			c0.5,0,0.9,1,1,2.1c0.4,2.3,0.2,5,0.7,7.8c2.5,0.9,2,4.1,2,4.1h-2.5h-2.2h-2.5C184.7,141.8,184.1,138.6,186.6,137.7 M188.3,118.4
			c-27.7,22.9-46.2,54.8-52,90.1c16.6,6.2,33.9,9.4,51.8,9.4c17.7,0,35.5-3.2,52.2-9.5C234.4,173.1,216,141.2,188.3,118.4"/>
		<path style="clip-path:url(#SVGID_00000032628565518226902310000017413885634565433500_);fill:#FFFFFF;" d="M279.4,126.6
			c0,34.4-6.7,62.6-16.6,85.4c-5.6-45.6-29.4-87-66.2-114.8c27.1,0.5,53.5,3.6,79.1,9.1l0.1,0c2.1,0.4,3.6,2.3,3.6,4.5L279.4,126.6
			L279.4,126.6z M223.2,229.1c-11.5,2.5-23.2,3.8-35.1,3.8c-11.5,0-23-1.2-34.5-3.7c-11.4-2.5-22.7-6.2-33.7-11.3
			c4.4-48.9,30.4-91.5,68.3-118.4c37.9,26.9,63.9,69.6,68.3,118.4C245.9,222.8,234.7,226.6,223.2,229.1 M190.6,292.7
			c-1.5,0.8-2.8,0.9-4.6,0c-16.1-8.5-45.2-29.2-65.6-67.3c21.5,9.4,44.2,14.2,67.7,14.2c23.3,0,46.8-5,68.2-14.3
			C235.8,263.5,206.7,284.2,190.6,292.7 M97.2,126.6l0-15.8c0-2.1,1.5-4,3.5-4.4l0.1,0c25.6-5.5,52.1-8.6,79.1-9.1
			c-36.7,27.9-60.5,69.1-66.1,114.7C103.9,189.1,97.2,161,97.2,126.6 M278.2,100.5l-0.2-0.1l-0.9-0.2c-29-6.2-58.9-9.4-88.7-9.4
			c-29.9,0-59.8,3.2-88.8,9.4l-0.1,0l-0.2,0.1c-4.9,1.2-8.3,5.6-8.3,10.6l0,15.8c0,114,70.6,160.3,92.2,171.8
			c1.7,0.9,3.5,1.4,5.3,1.4c1.8,0,3.6-0.5,5.3-1.4c21.5-11.4,92.1-57.7,92.1-171.7v-15.8C285.8,106.1,282.6,101.9,278.2,100.5"/>
	</g>
	<g>
		<defs>
			<polygon id="SVGID_00000077285944959780084990000010665410834555260840_" points="316.6,231.8 1188.2,231.8 1188.2,112.8 
				316.6,112.8 316.6,231.8 			"/>
		</defs>
		<clipPath id="SVGID_00000075142120263481712270000016955995578842637187_">
			<use xlink:href="#SVGID_00000077285944959780084990000010665410834555260840_"  style="overflow:visible;"/>
		</clipPath>
		<path style="clip-path:url(#SVGID_00000075142120263481712270000016955995578842637187_);fill:#FFFFFF;" d="M341.5,134.1
			c0-15.3-1.4-16.9-9.5-17.6l-3.4-0.3c-0.8-0.6-0.6-3,0.3-3.4c8,0.3,12.7,0.4,18.5,0.4c5.5,0,10.2-0.1,15.7-0.4
			c0.8,0.4,1.1,2.9,0.3,3.4l-2.1,0.3c-8.1,1.1-8.4,3-8.4,17.6v51.1c0,10.9-0.6,20.4-3.2,26.7c-4.6,11-14.3,19.8-27.1,19.8
			c-1.6,0-5.9-0.1-5.9-2.9c0-2.3,2.1-6.3,5-6.3c1.7,0,3.3,0.3,5.1,0.8c1.9,0.5,3.9,1,5.8,1c2.9,0,4.6-1.7,5.5-3.6
			c3.2-6.5,3.6-27.1,3.6-34.6V134.1L341.5,134.1z"/>
	</g>
	<path class="st11" d="M433.1,169c0-19.2-8.5-39.9-30.7-39.9c-12.1,0-27.8,8.3-27.8,33.7c0,17.2,8.4,39.5,31.3,39.5
		C419.8,202.4,433.1,191.9,433.1,169 M363,166.6c0-23.2,17.4-41,41.4-41c26.8,0,40.3,19.4,40.3,39.9c0,23.5-17.9,40.6-40.3,40.6
		C378.5,205.9,363,187.5,363,166.6"/>
	<path class="st11" d="M471.1,166.6c-5.6,0-5.8,0.2-5.8,3.7v16.4c0,12.2,0.6,13.8,7.1,14.5l3.4,0.4c0.7,0.5,0.5,2.6-0.2,2.9
		c-6.3-0.2-10.2-0.3-14.8-0.3c-5,0-8.9,0.2-13.5,0.3c-0.7-0.3-0.9-2.2-0.2-2.9l2-0.4c6.5-1.2,6.7-2.3,6.7-14.5v-41.8
		c0-12.2-0.8-14.2-6.9-14.6l-3-0.2c-0.7-0.5-0.5-2.6,0.2-2.9c5.7,0.1,9.6,0.3,14.6,0.3c4.5,0,8.5-0.1,13.5-0.3
		c0.7,0.3,0.9,2.4,0.2,2.9l-2.2,0.2c-6.7,0.7-7,2.4-7,14.6v13.4c0,3.6,0.2,3.7,5.8,3.7h33.2c5.6,0,5.8-0.1,5.8-3.7v-13.4
		c0-12.2-0.2-13.9-7.1-14.6l-2.2-0.2c-0.7-0.5-0.5-2.6,0.2-2.9c5.3,0.2,9.3,0.3,14.1,0.3c4.5,0,8.5-0.1,13.7-0.3
		c0.7,0.3,0.9,2.4,0.2,2.9l-2.5,0.2c-6.7,0.7-7,2.4-7,14.6v41.8c0,12.2,0.2,13.7,7,14.5l2.8,0.4c0.7,0.5,0.5,2.6-0.2,2.9
		c-5.6-0.2-9.5-0.3-14.1-0.3c-4.8,0-8.9,0.1-14.1,0.3c-0.7-0.3-0.9-2.2-0.2-2.9l2.2-0.4c7.1-1.2,7.1-2.3,7.1-14.5v-16.4
		c0-3.5-0.2-3.7-5.8-3.7H471.1L471.1,166.6z"/>
	<path class="st11" d="M608.8,184.3c0,3.5,0,17.3,0.3,20.3c-0.2,0.7-0.9,1.3-2.2,1.3c-1.4-2-4.8-6-14.9-17.5l-27-30.7
		c-3.1-3.6-11-13.1-13.5-15.7h-0.2c-0.5,1.4-0.6,4.1-0.6,7.5v25.3c0,5.5,0.1,20.6,2.1,24c0.7,1.3,3,2,5.9,2.2l3.6,0.4
		c0.7,0.9,0.6,2.3-0.2,2.9c-5.2-0.2-9.3-0.3-13.6-0.3c-4.9,0-8,0.1-12.1,0.3c-0.8-0.6-0.9-2.2-0.2-2.9l3.1-0.4
		c2.7-0.3,4.5-1,5.1-2.3c1.6-4.2,1.5-18.4,1.5-23.9v-33.6c0-3.3-0.1-5.7-2.6-8.4c-1.6-1.6-4.4-2.4-7.2-2.8l-2-0.2
		c-0.7-0.7-0.7-2.4,0.2-2.9c4.9,0.3,11,0.3,13.1,0.3c1.9,0,3.8-0.1,5.4-0.3c2.3,5.9,16,21.3,19.9,25.6l11.3,12.7
		c8,8.9,13.7,15.5,19.2,21h0.2c0.5-0.6,0.5-2.4,0.5-4.9v-24.9c0-5.5-0.1-20.6-2.3-24.1c-0.7-1-2.6-1.7-7.2-2.3l-2-0.2
		c-0.8-0.7-0.7-2.6,0.2-2.9c5.3,0.2,9.3,0.3,13.7,0.3c5,0,8-0.1,12-0.3c0.9,0.6,0.9,2.2,0.2,2.9l-1.6,0.2c-3.7,0.6-6,1.5-6.5,2.4
		c-2,4.2-1.7,18.6-1.7,23.9V184.3L608.8,184.3z"/>
	<g>
		<defs>
			<polygon id="SVGID_00000088849493250312328560000000231329855714064264_" points="316.6,231.8 1188.2,231.8 1188.2,112.8 
				316.6,112.8 316.6,231.8 			"/>
		</defs>
		<clipPath id="SVGID_00000055671790522707369970000002307919882591608472_">
			<use xlink:href="#SVGID_00000088849493250312328560000000231329855714064264_"  style="overflow:visible;"/>
		</clipPath>
		<path style="clip-path:url(#SVGID_00000055671790522707369970000002307919882591608472_);fill:#FFFFFF;" d="M639.5,205.9
			c-9.8,0-15.9-3-18.1-4.3c-1.4-2.6-2.9-10.8-3.1-16.3c0.6-0.8,2.3-1.1,2.8-0.3c1.7,5.9,6.5,17.3,20,17.3c9.8,0,14.5-6.4,14.5-13.4
			c0-5.1-1-10.8-9.5-16.3l-11-7.2c-5.8-3.8-12.6-10.5-12.6-20c0-11,8.6-20,23.7-20c3.6,0,7.8,0.7,10.8,1.5c1.5,0.5,3.1,0.7,4.1,0.7
			c1.1,2.8,2.1,9.3,2.1,14.2c-0.5,0.7-2.3,1-2.9,0.4c-1.5-5.6-4.6-13.1-15.8-13.1c-11.4,0-13.8,7.6-13.8,12.9
			c0,6.7,5.6,11.6,9.9,14.3l9.3,5.8c7.3,4.5,14.5,11.3,14.5,22.3C664.3,197.2,654.6,205.9,639.5,205.9"/>
		<path style="clip-path:url(#SVGID_00000055671790522707369970000002307919882591608472_);fill:#FFFFFF;" d="M733.3,159.6
			c-6.6,0-6.9,0.3-6.9,4.4v19.4c0,14.5,0.7,16.4,8.4,17.2l4,0.4c0.8,0.5,0.5,3-0.3,3.4c-7.4-0.3-12.1-0.4-17.5-0.4
			c-5.9,0-10.6,0.3-16,0.4c-0.8-0.4-1.1-2.6-0.3-3.4l2.3-0.4c7.7-1.4,8-2.8,8-17.2v-49.6c0-14.5-1-16.8-8.1-17.4l-3.6-0.3
			c-0.8-0.5-0.5-3,0.3-3.4c6.8,0.1,11.4,0.4,17.4,0.4c5.4,0,10.1-0.1,16-0.4c0.8,0.4,1.1,2.9,0.3,3.4l-2.6,0.3
			c-8,0.8-8.3,2.9-8.3,17.4v15.8c0,4.3,0.3,4.4,6.9,4.4h39.4c6.6,0,6.9-0.1,6.9-4.4v-15.8c0-14.5-0.3-16.5-8.4-17.4l-2.6-0.3
			c-0.8-0.5-0.5-3,0.3-3.4c6.3,0.3,11,0.4,16.7,0.4c5.4,0,10.1-0.1,16.3-0.4c0.8,0.4,1.1,2.9,0.3,3.4l-2.9,0.3
			c-8,0.8-8.3,2.9-8.3,17.4v49.6c0,14.5,0.3,16.3,8.3,17.2l3.3,0.4c0.8,0.5,0.6,3-0.3,3.4c-6.6-0.3-11.3-0.4-16.7-0.4
			c-5.6,0-10.6,0.1-16.7,0.4c-0.8-0.4-1.1-2.6-0.3-3.4l2.6-0.4c8.4-1.4,8.4-2.8,8.4-17.2V164c0-4.1-0.3-4.4-6.9-4.4H733.3
			L733.3,159.6z"/>
	</g>
	<path class="st11" d="M871.6,169c0-19.2-8.5-39.9-30.7-39.9c-12.1,0-27.8,8.3-27.8,33.7c0,17.2,8.4,39.5,31.3,39.5
		C858.4,202.4,871.6,191.9,871.6,169 M801.5,166.6c0-23.2,17.4-41,41.4-41c26.9,0,40.3,19.4,40.3,39.9c0,23.5-17.9,40.6-40.3,40.6
		C817.1,205.9,801.5,187.5,801.5,166.6"/>
	<path class="st11" d="M904.3,186.7c0,12.2,0.2,13.7,7.7,14.5l3.1,0.3c0.7,0.6,0.5,2.6-0.2,2.9c-6.6-0.2-10.5-0.3-15.1-0.3
		c-4.9,0-9.1,0.1-14.2,0.3c-0.7-0.3-0.9-2.2-0.2-2.9l2.4-0.3c6.7-0.9,7-2.3,7-14.5v-42.9c0-9.9-0.2-11.9-5.5-12.4l-4.2-0.5
		c-0.8-0.7-0.7-2.4,0.2-2.9c6.2-0.8,13.4-0.9,23-0.9c9.6,0,16.9,1.3,22.3,4.7c5.3,3.4,9.3,9.4,9.3,17.4c0,10.7-6.6,16-11.6,18.5
		c-5.1,2.4-11.3,3.5-16,3.5c-0.8-0.3-0.8-2.1-0.1-2.3c12.6-2.3,17.1-9.4,17.1-19.5c0-11.3-6.6-18.6-18.7-18.6
		c-6.2,0-6.3,0.5-6.3,4.2V186.7L904.3,186.7z"/>
	<path class="st11" d="M952.6,144.8c0-12.2-0.2-14.1-7-14.6l-2.9-0.2c-0.7-0.5-0.5-2.6,0.2-2.9c5.7,0.2,9.4,0.3,14.6,0.3
		c4.5,0,8.5-0.1,13.5-0.3c0.7,0.3,0.9,2.4,0.2,2.9l-2.2,0.2c-6.7,0.7-7,2.4-7,14.6v13.4c0,2.2,0.2,4.4,1.5,4.4c1,0,2.4-0.7,3.2-1.3
		c1.6-1.4,4.7-4.4,5.9-5.6l12.6-12.4c2.2-2.1,7.9-8,9.1-9.6c0.6-0.8,0.8-1.4,0.8-1.9c0-0.5-0.5-0.8-2-1.2l-3.1-0.7
		c-0.8-0.8-0.7-2.3,0.2-2.9c4.1,0.2,8.7,0.3,12.8,0.3c4.1,0,8-0.1,11.5-0.3c0.8,0.6,0.9,2.2,0.2,2.9c-3,0.2-7.5,1.4-10.8,3.3
		c-3.3,1.9-9.8,7.3-16.3,13.5l-10.5,9.9c-1.6,1.6-2.7,2.7-2.7,3.6c0,0.8,0.7,1.7,2.2,3.6c11,12.7,20,23.1,29.1,32.7
		c2.8,2.8,4.9,4.3,8.9,4.8l2.2,0.3c0.8,0.6,0.6,2.6-0.2,2.9c-3-0.2-6.2-0.4-11.7-0.4c-4.8,0-8.8,0.1-14.2,0.4
		c-0.8-0.2-1.2-2.2-0.5-2.9l2.7-0.5c1.6-0.2,2.8-0.6,2.8-1.2c0-0.7-0.8-1.6-1.6-2.7c-2.2-2.8-5.2-5.9-9.6-10.9l-9.3-10.5
		c-6.6-7.4-8.5-9.8-11.3-9.8c-1.7,0-2,1.5-2,5.6v15c0,12.2,0.2,13.8,6.7,14.5l3.1,0.3c0.7,0.5,0.5,2.6-0.2,2.9
		c-5.7-0.2-9.6-0.4-14.2-0.4c-4.8,0-8.7,0.1-13.5,0.4c-0.7-0.4-0.9-2.1-0.2-2.9l2.3-0.3c6.2-0.9,6.4-2.3,6.4-14.5V144.8L952.6,144.8
		z"/>
	<path class="st11" d="M1032.4,145.1c0-12.3-0.2-14.3-7.1-14.9l-2.9-0.2c-0.7-0.5-0.5-2.6,0.2-2.9c5.8,0.2,9.8,0.4,14.6,0.4
		c4.7,0,8.6-0.1,14.4-0.4c0.7,0.4,0.9,2.4,0.2,2.9l-2.9,0.2c-6.9,0.6-7.1,2.6-7.1,14.9v41.4c0,12.3,0.2,14,7.1,14.8l2.9,0.3
		c0.7,0.5,0.5,2.6-0.2,2.9c-5.8-0.2-9.8-0.4-14.4-0.4c-4.9,0-8.4,0.1-14.2,0.4c-0.7-0.4-0.9-2.2-0.2-2.9l2.5-0.3
		c6.9-0.8,7.1-2.4,7.1-14.8V145.1L1032.4,145.1z"/>
	<path class="st11" d="M1132.9,184.3c0,3.5,0,17.3,0.4,20.3c-0.2,0.7-0.9,1.3-2.2,1.3c-1.4-2-4.8-6-14.9-17.5l-27-30.7
		c-3.1-3.6-11-13.1-13.5-15.7h-0.2c-0.5,1.4-0.6,4.1-0.6,7.5v25.3c0,5.5,0.1,20.6,2.1,24c0.7,1.3,3,2,5.9,2.2l3.6,0.4
		c0.7,0.9,0.6,2.3-0.2,2.9c-5.2-0.2-9.3-0.3-13.6-0.3c-4.9,0-8,0.1-12.1,0.3c-0.8-0.6-0.9-2.2-0.2-2.9l3.1-0.4
		c2.7-0.3,4.5-1,5.1-2.3c1.6-4.2,1.5-18.4,1.5-23.9v-33.6c0-3.3-0.1-5.7-2.6-8.4c-1.6-1.6-4.4-2.4-7.2-2.8l-2-0.2
		c-0.7-0.7-0.7-2.4,0.2-2.9c4.9,0.3,11,0.3,13.1,0.3c1.9,0,3.8-0.1,5.4-0.3c2.3,5.9,16,21.3,19.9,25.6l11.3,12.7
		c8,8.9,13.7,15.5,19.2,21h0.2c0.5-0.6,0.5-2.4,0.5-4.9v-24.9c0-5.5-0.1-20.6-2.3-24.1c-0.7-1-2.6-1.7-7.2-2.3l-2-0.2
		c-0.8-0.7-0.7-2.6,0.2-2.9c5.3,0.2,9.3,0.3,13.7,0.3c5,0,8-0.1,12-0.3c0.9,0.6,0.9,2.2,0.2,2.9l-1.6,0.2c-3.7,0.6-6,1.5-6.5,2.4
		c-2,4.2-1.7,18.6-1.7,23.9V184.3L1132.9,184.3z"/>
	<path class="st11" d="M1163.5,205.9c-9.8,0-15.9-3-18.1-4.3c-1.4-2.6-2.9-10.8-3.1-16.3c0.6-0.8,2.3-1.1,2.8-0.3
		c1.7,5.9,6.5,17.3,20,17.3c9.8,0,14.5-6.4,14.5-13.4c0-5.1-1.1-10.8-9.5-16.3l-11-7.2c-5.8-3.8-12.6-10.5-12.6-20
		c0-11,8.6-20,23.7-20c3.6,0,7.8,0.7,10.8,1.5c1.5,0.5,3.1,0.7,4.1,0.7c1.1,2.8,2.1,9.3,2.1,14.2c-0.5,0.7-2.3,1-2.9,0.4
		c-1.5-5.6-4.6-13.1-15.8-13.1c-11.4,0-13.8,7.6-13.8,12.9c0,6.7,5.6,11.6,9.9,14.3l9.3,5.8c7.3,4.5,14.5,11.3,14.5,22.3
		C1188.2,197.2,1178.6,205.9,1163.5,205.9"/>
	<path class="st11" d="M436.2,296.6c-5,0-8.2-1.6-9.4-2.2c-0.7-1.3-1.5-5.6-1.6-8.4c0.3-0.4,1.2-0.5,1.4-0.2
		c0.9,3.1,3.4,8.9,10.3,8.9c5,0,7.5-3.3,7.5-6.9c0-2.6-0.5-5.6-4.9-8.4l-5.7-3.7c-3-2-6.5-5.4-6.5-10.3c0-5.7,4.4-10.3,12.3-10.3
		c1.9,0,4,0.4,5.6,0.8c0.8,0.2,1.6,0.4,2.1,0.4c0.5,1.4,1.1,4.8,1.1,7.3c-0.2,0.4-1.2,0.5-1.5,0.2c-0.8-2.9-2.4-6.8-8.2-6.8
		c-5.9,0-7.1,3.9-7.1,6.7c0,3.5,2.9,6,5.1,7.4l4.8,3c3.8,2.3,7.5,5.8,7.5,11.5C449,292.1,444,296.6,436.2,296.6"/>
	<path class="st11" d="M463.9,260.2c4.4-3.4,10-5.1,16.2-5.1c3.2,0,7.8,0.7,10.6,1.4c0.7,0.2,1.1,0.3,1.7,0.2
		c0.1,1.4,0.4,5.2,0.8,8.8c-0.3,0.4-1.2,0.5-1.6,0.1c-0.9-4.1-3.6-8.8-12.3-8.8c-9.2,0-17,5.8-17,18.3c0,12.6,8,19.6,17.8,19.6
		c7.8,0,11.2-5,12.6-8.6c0.4-0.3,1.3-0.2,1.6,0.2c-0.4,3.1-2,7.1-2.9,8.2c-0.7,0.1-1.4,0.4-2.1,0.6c-1.3,0.5-5.6,1.4-9.5,1.4
		c-5.4,0-10.6-1.1-15-4c-4.8-3.3-8.5-8.8-8.5-16.5C456.3,269.4,459.3,263.7,463.9,260.2"/>
	<path class="st11" d="M514.1,276.3c-2.9,0-3,0.1-3,1.9v8.5c0,6.3,0.3,7.1,3.7,7.5l1.7,0.2c0.4,0.2,0.2,1.3-0.1,1.5
		c-3.2-0.1-5.3-0.2-7.6-0.2c-2.6,0-4.6,0.1-7,0.2c-0.4-0.2-0.5-1.1-0.1-1.5l1-0.2c3.4-0.6,3.5-1.2,3.5-7.5V265
		c0-6.3-0.4-7.3-3.5-7.6l-1.6-0.1c-0.4-0.2-0.2-1.3,0.1-1.5c2.9,0.1,5,0.2,7.6,0.2c2.3,0,4.4-0.1,7-0.2c0.4,0.2,0.5,1.3,0.1,1.5
		l-1.1,0.1c-3.5,0.4-3.6,1.3-3.6,7.6v6.9c0,1.9,0.1,1.9,3,1.9h17.2c2.9,0,3-0.1,3-1.9V265c0-6.3-0.1-7.2-3.7-7.6l-1.1-0.1
		c-0.4-0.2-0.2-1.3,0.1-1.5c2.8,0.1,4.8,0.2,7.3,0.2c2.3,0,4.4-0.1,7.1-0.2c0.4,0.2,0.5,1.3,0.1,1.5l-1.3,0.1
		c-3.5,0.4-3.6,1.3-3.6,7.6v21.6c0,6.3,0.1,7.1,3.6,7.5l1.4,0.2c0.4,0.2,0.2,1.3-0.1,1.5c-2.9-0.1-4.9-0.2-7.3-0.2
		c-2.5,0-4.6,0.1-7.3,0.2c-0.4-0.2-0.5-1.1-0.1-1.5l1.1-0.2c3.7-0.6,3.7-1.2,3.7-7.5v-8.5c0-1.8-0.1-1.9-3-1.9H514.1L514.1,276.3z"
		/>
	<path class="st11" d="M587.3,277.5c0-9.9-4.4-20.6-15.9-20.6c-6.2,0-14.4,4.3-14.4,17.4c0,8.9,4.3,20.4,16.2,20.4
		C580.4,294.8,587.3,289.4,587.3,277.5 M551.1,276.3c0-12,9-21.2,21.4-21.2c13.9,0,20.8,10,20.8,20.6c0,12.1-9.2,21-20.8,21
		C559.1,296.6,551.1,287.1,551.1,276.3"/>
	<path class="st11" d="M638,277.5c0-9.9-4.4-20.6-15.9-20.6c-6.2,0-14.4,4.3-14.4,17.4c0,8.9,4.3,20.4,16.2,20.4
		C631.2,294.8,638,289.4,638,277.5 M601.8,276.3c0-12,9-21.2,21.4-21.2c13.9,0,20.8,10,20.8,20.6c0,12.1-9.2,21-20.8,21
		C609.8,296.6,601.8,287.1,601.8,276.3"/>
	<path class="st11" d="M657,265c0-6.3-0.1-7.3-3.9-7.6l-1.5-0.1c-0.4-0.2-0.2-1.3,0.1-1.5c3.4,0.1,5.4,0.2,7.8,0.2
		c2.3,0,4.4-0.1,7.4-0.2c0.4,0.2,0.5,1.3,0.1,1.5l-1.4,0.1c-3.5,0.3-3.7,1.3-3.7,7.6v20.9c0,3.8,0.2,5.4,1.3,6.5
		c0.7,0.7,1.8,1.4,6.6,1.4c5.1,0,6.4-0.2,7.3-0.8c1.2-0.7,2.8-2.9,4-5.9c0.4-0.3,1.5-0.1,1.5,0.4c0,0.7-1.7,6.8-2.5,8.4
		c-3.1-0.1-8.8-0.2-15-0.2h-5.5c-2.5,0-4.4,0.1-7.8,0.2c-0.4-0.2-0.5-1.1-0.1-1.5l1.8-0.2c3.5-0.4,3.6-1.2,3.6-7.5V265L657,265z"/>
	<path class="st11" d="M711.9,275.9c-3.5,4.7-5.8,11.8-6,15c-0.1,2.1,0.7,3.8,2.5,3.8c1.3,0,2.8-0.5,4.7-3.1
		c2.6-3.5,5.5-11.5,5.6-14.7c0.1-1.9-0.3-4-2.4-4C715.1,273,713.7,273.5,711.9,275.9 M722.9,278.7c-0.2,3.3-1.9,9.1-6.4,13.6
		c-3.7,3.8-7,4.1-8.6,4.1c-3.8,0-6.4-2.8-6-8c0.2-3.7,2.5-9.5,6.5-13.5c3.1-3,5.8-3.9,8.3-3.9C721,271.2,723.1,274.4,722.9,278.7"/>
	<path class="st11" d="M740.3,274.2c-0.4,1-0.8,2.9-1.6,5.6c-1.8,6.7-3.4,12.5-5.3,19.1c-1.6,5.4-3.5,8.5-4.7,9.7
		c-0.9,0.8-3.7,3.2-7.2,3.2c-3.2,0-4.4-2-4.4-2.9c0-1.2,0.7-2.2,1.4-2.7c0.5-0.4,1-0.2,1.4,0.2c1.4,1.5,3.2,2.5,4.6,2.5
		c1.2,0,2.5-0.4,3.8-5c2.8-9.5,4.9-19.8,7.7-29.6h-5c-0.6-0.5-0.4-1.7,0.4-2.2h5.2c1.6-5.4,3.2-10.1,6.7-14.3c3-3.5,6.1-5,9.6-5
		c2.2,0,4.6,1.6,4.6,4c0,1.6-1.6,3.4-2.6,3.4c-0.5,0-0.8-0.5-0.8-1c-0.2-3.3-1.9-4.4-3.4-4.4c-1.3,0-2.9,1.2-4.3,3.2
		c-2.8,4-4,8.3-5.6,14h7.5c0.4,0.7,0.3,1.6-0.6,2.2H740.3L740.3,274.2z"/>
	<path class="st11" d="M788.7,279.6c1.4,2.8,2.7,5.6,4.1,8.2h0.1c1.6-2.8,3.1-5.9,4.6-9l5.6-11.5c2.7-5.5,4.4-8.8,4.6-11.5
		c2,0.2,3.3,0.2,4.5,0.2c1.5,0,3.5-0.1,5.3-0.2c0.4,0.2,0.4,1.3,0.1,1.5l-1.3,0.1c-3.8,0.4-4.3,1.5-4.2,5.7
		c0.1,6.4,0.2,17.5,0.7,26.1c0.2,3,0.1,4.6,2.9,4.9l1.9,0.2c0.4,0.4,0.3,1.3-0.1,1.5c-2.5-0.1-4.9-0.2-7.1-0.2
		c-2.1,0-4.8,0.1-7.3,0.2c-0.4-0.3-0.5-1.1-0.1-1.5l1.7-0.2c2.9-0.3,2.9-1.3,2.9-5.1l-0.2-25.1h-0.1c-0.4,0.7-2.7,5.5-3.9,7.8
		l-5.3,10.5c-2.7,5.3-5.4,10.9-6.5,13.7c-0.1,0.2-0.4,0.2-0.6,0.2c-0.1,0-0.4-0.1-0.5-0.2c-1-3.2-3.9-9.1-5.3-12l-5.4-11.6
		c-1.3-2.8-2.5-5.9-3.8-8.6H776c-0.2,3.7-0.4,7.2-0.6,10.7c-0.2,3.7-0.4,9-0.4,14.1c0,4.4,0.4,5.4,2.7,5.6l2.3,0.2
		c0.4,0.4,0.4,1.3-0.1,1.5c-2-0.1-4.4-0.2-6.7-0.2c-1.9,0-4.1,0.1-6.1,0.2c-0.4-0.3-0.5-1.2-0.1-1.5l1.3-0.2
		c2.5-0.4,3.4-0.7,3.7-4.9c0.4-4,0.7-7.3,1-13.2c0.3-5,0.5-10.1,0.7-13.4c0.1-3.8-0.4-4.7-4-5.2l-1-0.1c-0.3-0.4-0.2-1.3,0.2-1.5
		c1.8,0.1,3.2,0.2,4.7,0.2c1.4,0,3,0,5-0.2c-0.2,2.3,1.3,6.1,3.1,9.9L788.7,279.6L788.7,279.6z"/>
	<path class="st11" d="M830.7,265c0-6.2-0.1-7.1-3.7-7.6l-1-0.1c-0.4-0.2-0.2-1.3,0.1-1.5c2.6,0.1,4.6,0.2,7.1,0.2h11.3
		c3.8,0,7.4,0,8.1-0.2c0.4,1,0.7,5.3,1,8c-0.2,0.4-1.2,0.5-1.5,0.1c-0.9-2.8-1.4-4.9-4.6-5.7c-1.3-0.3-3.2-0.4-5.8-0.4h-4.3
		c-1.8,0-1.8,0.1-1.8,2.4v12c0,1.7,0.2,1.7,2,1.7h3.5c2.5,0,4.4-0.1,5.1-0.4c0.7-0.2,1.1-0.6,1.4-2.1l0.5-2.5
		c0.3-0.4,1.3-0.4,1.6,0.1c0,1.4-0.2,3.8-0.2,6.1c0,2.2,0.2,4.4,0.2,5.8c-0.2,0.4-1.3,0.4-1.6,0.1l-0.5-2.3c-0.2-1.1-0.7-2-1.9-2.3
		c-0.8-0.2-2.3-0.3-4.6-0.3h-3.5c-1.8,0-2,0.1-2,1.6v8.5c0,3.2,0.2,5.2,1.1,6.2c0.7,0.7,2,1.4,7.3,1.4c4.6,0,6.4-0.2,7.7-0.9
		c1.1-0.6,2.7-2.7,4.3-5.8c0.4-0.3,1.3-0.1,1.5,0.4c-0.4,2.1-1.9,6.7-2.7,8.3c-5.4-0.1-10.8-0.2-16.1-0.2h-5.4
		c-2.6,0-4.6,0.1-8.2,0.2c-0.4-0.2-0.5-1.1-0.1-1.5l2-0.2c3.4-0.3,3.7-1.2,3.7-7.5V265L830.7,265z"/>
	<path class="st11" d="M872.5,285.3c0,3.2,0.2,5.1,1.2,6.6c1.3,1.9,3.6,2.5,7.4,2.5c11.7,0,16.9-7.6,16.9-18.8
		c0-6.6-3.2-17.8-18.9-17.8c-3.5,0-5.5,0.5-6,0.8c-0.5,0.4-0.6,1.9-0.6,4.6V285.3L872.5,285.3z M867.6,263.8c0-4.2-0.3-5.5-2.8-5.8
		l-1.3-0.2c-0.5-0.3-0.5-1.3,0.1-1.5c5.1-0.3,10-0.5,15.1-0.5c5.1,0,9.3,0.4,13.2,1.8c8.1,2.9,12.2,9.8,12.2,17.7
		c0,7.6-3.7,14.2-10.5,17.9c-3.9,2.1-8.8,2.9-13.5,2.9c-3.8,0-7.7-0.5-9.8-0.5c-2.5,0-4.7,0.1-7.5,0.2c-0.4-0.2-0.5-1.1-0.1-1.5
		l1.4-0.2c3.5-0.5,3.6-1.2,3.6-7.5V263.8L867.6,263.8z"/>
	<path class="st11" d="M915.7,265.2c0-6.4-0.1-7.4-3.7-7.7l-1.5-0.1c-0.4-0.2-0.2-1.3,0.1-1.5c3,0.1,5.1,0.2,7.6,0.2
		c2.4,0,4.4-0.1,7.4-0.2c0.4,0.2,0.5,1.3,0.1,1.5l-1.5,0.1c-3.5,0.3-3.7,1.3-3.7,7.7v21.4c0,6.4,0.1,7.2,3.7,7.6l1.5,0.2
		c0.4,0.2,0.2,1.3-0.1,1.5c-3-0.1-5-0.2-7.4-0.2c-2.5,0-4.6,0.1-7.6,0.2c-0.4-0.2-0.5-1.1-0.1-1.5l1.5-0.2c3.5-0.4,3.7-1.3,3.7-7.6
		V265.2L915.7,265.2z"/>
	<path class="st11" d="M939.7,260.2c4.4-3.4,10-5.1,16.2-5.1c3.2,0,7.8,0.7,10.6,1.4c0.7,0.2,1.1,0.3,1.7,0.2
		c0.1,1.4,0.4,5.2,0.8,8.8c-0.3,0.4-1.2,0.5-1.6,0.1c-0.9-4.1-3.6-8.8-12.3-8.8c-9.2,0-17,5.8-17,18.3c0,12.6,8,19.6,17.8,19.6
		c7.8,0,11.2-5,12.6-8.6c0.4-0.3,1.3-0.2,1.6,0.2c-0.4,3.1-2,7.1-2.9,8.2c-0.7,0.1-1.4,0.4-2.1,0.6c-1.3,0.5-5.6,1.4-9.5,1.4
		c-5.4,0-10.6-1.1-15-4c-4.8-3.3-8.5-8.8-8.5-16.5C932.1,269.4,935.1,263.7,939.7,260.2"/>
	<path class="st11" d="M981.9,265.2c0-6.4-0.1-7.4-3.7-7.7l-1.5-0.1c-0.4-0.2-0.2-1.3,0.1-1.5c3,0.1,5.1,0.2,7.6,0.2
		c2.4,0,4.4-0.1,7.4-0.2c0.4,0.2,0.5,1.3,0.1,1.5l-1.5,0.1c-3.5,0.3-3.7,1.3-3.7,7.7v21.4c0,6.4,0.1,7.2,3.7,7.6l1.5,0.2
		c0.4,0.2,0.2,1.3-0.1,1.5c-3-0.1-5-0.2-7.4-0.2c-2.5,0-4.6,0.1-7.6,0.2c-0.4-0.2-0.5-1.1-0.1-1.5l1.5-0.2c3.5-0.4,3.7-1.3,3.7-7.6
		V265.2L981.9,265.2z"/>
	<path class="st11" d="M1037.6,285.5c0,1.8,0,9,0.2,10.5c-0.1,0.4-0.5,0.7-1.1,0.7c-0.7-1-2.5-3.1-7.7-9.1l-13.9-15.9
		c-1.6-1.9-5.7-6.8-7-8.1h-0.1c-0.2,0.7-0.3,2.1-0.3,3.9v13.1c0,2.8,0.1,10.6,1.1,12.4c0.4,0.7,1.6,1,3.1,1.1l1.9,0.2
		c0.4,0.5,0.3,1.2-0.1,1.5c-2.7-0.1-4.8-0.2-7-0.2c-2.5,0-4.1,0.1-6.2,0.2c-0.4-0.3-0.5-1.1-0.1-1.5l1.6-0.2
		c1.4-0.2,2.3-0.5,2.6-1.2c0.8-2.2,0.8-9.5,0.8-12.4v-17.4c0-1.7-0.1-2.9-1.3-4.3c-0.8-0.8-2.3-1.3-3.7-1.4l-1-0.1
		c-0.4-0.4-0.4-1.3,0.1-1.5c2.5,0.2,5.7,0.2,6.8,0.2c1,0,2-0.1,2.8-0.2c1.2,3.1,8.3,11,10.3,13.2l5.8,6.5c4.2,4.6,7.1,8,9.9,10.9
		h0.1c0.2-0.3,0.2-1.3,0.2-2.5v-12.9c0-2.8-0.1-10.6-1.2-12.4c-0.4-0.5-1.3-0.9-3.7-1.2l-1-0.1c-0.4-0.4-0.4-1.3,0.1-1.5
		c2.8,0.1,4.8,0.2,7.1,0.2c2.6,0,4.1-0.1,6.2-0.2c0.5,0.3,0.5,1.1,0.1,1.5l-0.8,0.1c-1.9,0.3-3.1,0.8-3.4,1.3
		c-1,2.2-0.9,9.6-0.9,12.4V285.5L1037.6,285.5z"/>
	<path class="st11" d="M1052.9,265c0-6.2-0.1-7.1-3.7-7.6l-1-0.1c-0.4-0.2-0.2-1.3,0.1-1.5c2.6,0.1,4.6,0.2,7.1,0.2h11.3
		c3.8,0,7.4,0,8.1-0.2c0.4,1,0.7,5.3,1,8c-0.2,0.4-1.2,0.5-1.5,0.1c-0.9-2.8-1.4-4.9-4.6-5.7c-1.3-0.3-3.2-0.4-5.8-0.4h-4.3
		c-1.8,0-1.8,0.1-1.8,2.4v12c0,1.7,0.2,1.7,2,1.7h3.5c2.5,0,4.4-0.1,5.1-0.4c0.7-0.2,1.1-0.6,1.4-2.1l0.5-2.5
		c0.3-0.4,1.3-0.4,1.6,0.1c0,1.4-0.2,3.8-0.2,6.1c0,2.2,0.2,4.4,0.2,5.8c-0.2,0.4-1.3,0.4-1.6,0.1l-0.5-2.3c-0.2-1.1-0.7-2-1.9-2.3
		c-0.8-0.2-2.3-0.3-4.6-0.3h-3.5c-1.8,0-2,0.1-2,1.6v8.5c0,3.2,0.2,5.2,1.1,6.2c0.7,0.7,2,1.4,7.3,1.4c4.6,0,6.4-0.2,7.7-0.9
		c1.1-0.6,2.7-2.7,4.3-5.8c0.4-0.3,1.3-0.1,1.5,0.4c-0.4,2.1-1.9,6.7-2.7,8.3c-5.4-0.1-10.8-0.2-16.1-0.2h-5.4
		c-2.6,0-4.6,0.1-8.2,0.2c-0.4-0.2-0.5-1.1-0.1-1.5l2-0.2c3.4-0.3,3.7-1.2,3.7-7.5V265L1052.9,265z"/>
</g>
</svg>
